M48
;Layer_Color=9474304
;FILE_FORMAT=4:4
METRIC,LZ
;TYPE=PLATED
T01F00S00C0.6800
T02F00S00C0.8000
T03F00S00C0.8500
T04F00S00C0.9000
T05F00S00C1.0160
T06F00S00C1.2192
T07F00S00C6.0000
%
T01
X0058039Y0062738
X0056769Y0064008
X0058039Y0065278
T02
X009883Y0053467
X010033Y0054737
Y0052197
T03
X0077089Y0078757
Y0087757
Y0094941
Y0103941
T04
X0033655Y0069469
Y0072009
Y0074549
Y0077089
X0032385Y0101473
Y0104013
X003302Y0112649
Y0115189
X0118491Y011557
Y011303
Y011049
Y010795
Y010541
Y010287
Y010033
Y009779
Y009525
X010922Y0094107
Y0091567
X0126111Y009525
Y009779
Y010033
Y010287
Y010541
Y010795
Y011049
Y011303
Y011557
X0145669Y0115951
Y0113411
Y0110871
Y0108331
Y0105791
Y0103251
Y0100711
Y0098171
Y0095631
Y0093091
X0153289
Y0095631
Y0098171
Y0100711
Y0103251
Y0105791
Y0108331
Y0110871
Y0113411
Y0115951
T05
X00779697Y00454027
Y00504827
T06
X010033Y0064651
X0077243Y0071839
X0077343Y0056839
X0044831Y005435
Y007035
X0087984Y0088251
X0100203Y0086495
X010033Y0080651
X0100203Y0102495
X0087884Y0103251
T07
X0032639Y0092329
X0046228Y0104648
X0046736Y0117094
M30
